<?xml version="1.0" encoding="utf-8"?>
<!-- Generator: Adobe Illustrator 22.0.0, SVG Export Plug-In . SVG Version: 6.00 Build 0)  -->
<svg xmlns="http://www.w3.org/2000/svg" xmlns:xlink="http://www.w3.org/1999/xlink" version="1.1" id="Layer_1" x="0px" y="0px" viewBox="0 0 256 256" style="enable-background:new 0 0 256 256;" xml:space="preserve" width="512" height="512">
<style type="text/css">
	.st0{fill:#3A312A;}
	.st1{fill:#D7E057;}
	.st2{fill:#8AC6DD;}
	.st3{fill:#87796F;}
	.st4{fill:#B9C239;}
	.st5{fill:#6CA8BF;}
	.st6{fill:#FCE8CB;}
	.st7{fill:#B9BC39;}
	.st8{fill:#68A8BC;}
	.st9{fill:#F16C7A;}
	.st10{fill:#D34E5C;}
	.st11{fill-rule:evenodd;clip-rule:evenodd;fill:#87796F;}
	.st12{fill:#DECAAD;}
	.st13{fill:#695B51;}
	.st14{fill:#6B5B51;}
	.st15{fill-rule:evenodd;clip-rule:evenodd;fill:#FCE8CB;}
	.st16{fill:#F5978A;}
</style>
<g>
	<g>
		<g>
			<path class="st1" d="M226.475,26.23c-0.974,11.564-13.025,13.389-13.025,13.389c10.346,0.487,12.925,14.059,12.925,14.059     c0.221-9.677,13.321-14.202,13.321-14.202C229.883,38.889,226.475,26.23,226.475,26.23z"/>
		</g>
	</g>
	<g>
		<g>
			<path class="st0" d="M239.786,37.979c-8.605-0.514-11.832-12.024-11.863-12.14c-0.191-0.702-0.853-1.165-1.584-1.102     c-0.725,0.066-1.298,0.642-1.359,1.367c-0.859,10.215-11.312,11.963-11.754,12.032c-0.763,0.115-1.314,0.79-1.273,1.561     c0.04,0.77,0.657,1.384,1.428,1.421c9.027,0.425,11.498,12.719,11.521,12.843c0.138,0.711,0.76,1.217,1.473,1.217     c0.042,0,0.084-0.001,0.126-0.005c0.764-0.064,1.357-0.693,1.375-1.46c0.194-8.509,12.191-12.777,12.312-12.819     c0.676-0.235,1.092-0.915,0.994-1.623C241.083,38.562,240.5,38.021,239.786,37.979z M226.22,48.325     c-1.356-3.13-3.709-6.907-7.587-8.876c2.931-1.405,6.409-3.913,8.202-8.273c1.551,3.071,4.2,6.88,8.334,8.722     C232.162,41.538,228.246,44.304,226.22,48.325z"/>
		</g>
	</g>
	<g>
		<g>
			<path class="st1" d="M204.776,43.21c-0.689,8.179-9.212,9.471-9.212,9.471c7.318,0.344,9.142,9.944,9.142,9.944     c0.156-6.845,9.422-10.045,9.422-10.045C207.186,52.164,204.776,43.21,204.776,43.21z"/>
		</g>
	</g>
	<g>
		<g>
			<path class="st0" d="M214.218,51.082c-5.767-0.345-7.973-8.185-7.995-8.264c-0.189-0.702-0.86-1.159-1.581-1.102     c-0.726,0.065-1.3,0.643-1.361,1.368c-0.578,6.871-7.645,8.067-7.941,8.114c-0.763,0.115-1.314,0.79-1.273,1.561     c0.04,0.77,0.657,1.384,1.428,1.421c6.035,0.284,7.724,8.644,7.739,8.726c0.136,0.712,0.759,1.22,1.473,1.22     c0.041,0,0.083-0.002,0.125-0.005c0.765-0.063,1.358-0.694,1.376-1.461c0.13-5.709,8.331-8.634,8.412-8.662     c0.676-0.234,1.093-0.913,0.996-1.622C215.517,51.667,214.932,51.125,214.218,51.082z M204.633,57.877     c-0.924-1.886-2.34-3.947-4.447-5.28c1.856-1.041,3.697-2.63,4.87-4.917c1.058,1.874,2.655,3.955,4.942,5.224     C208.147,54.006,206.009,55.645,204.633,57.877z"/>
		</g>
	</g>
	<g>
		<g>
			<path class="st1" d="M204.776,16.553c-0.689,8.179-9.212,9.47-9.212,9.47c7.318,0.345,9.142,9.944,9.142,9.944     c0.156-6.845,9.422-10.045,9.422-10.045C207.186,25.507,204.776,16.553,204.776,16.553z"/>
		</g>
	</g>
	<g>
		<g>
			<path class="st0" d="M214.218,24.425c-5.767-0.345-7.973-8.186-7.995-8.265c-0.189-0.702-0.86-1.158-1.581-1.102     c-0.726,0.065-1.3,0.643-1.361,1.368c-0.578,6.871-7.645,8.067-7.941,8.114c-0.763,0.115-1.314,0.79-1.273,1.561     c0.04,0.77,0.657,1.384,1.428,1.421c6.035,0.284,7.724,8.644,7.739,8.726c0.136,0.713,0.759,1.22,1.473,1.22     c0.041,0,0.083-0.001,0.125-0.005c0.765-0.063,1.358-0.694,1.376-1.461c0.13-5.709,8.331-8.634,8.412-8.662     c0.676-0.234,1.093-0.913,0.996-1.622C215.517,25.009,214.932,24.468,214.218,24.425z M204.633,31.22     c-0.924-1.885-2.34-3.947-4.447-5.28c1.856-1.041,3.697-2.63,4.87-4.916c1.058,1.874,2.655,3.954,4.942,5.224     C208.148,27.348,206.009,28.987,204.633,31.22z"/>
		</g>
	</g>
	<g>
		<g>
			<path class="st9" d="M171.653,131.396c-2.41-3.91-5.18-7.56-8.27-10.92c-3.86-4.19-8.22-7.92-12.98-11.08     c-9.61-6.39-20.86-10.5-32.99-11.56c-0.87-0.09-1.73-0.14-2.6-0.18c-1.22-0.07-2.43-0.11-3.67-0.11l-0.07-0.06l-11.99-11.28     l-53.52-50.37l-14.82-13.95c-0.1-0.09-0.2-0.18-0.31-0.26c-4.02-3.18-9-4.96-14.13-5.06v155.63h162.21c2,0,3.63-1.62,3.63-3.63     C182.143,154.936,178.303,142.206,171.653,131.396z"/>
		</g>
	</g>
	<g>
		<g>
			<path class="st0" d="M172.931,130.609c-2.441-3.96-5.281-7.711-8.443-11.15c-3.958-4.296-8.418-8.102-13.253-11.312     c-10.037-6.674-21.686-10.756-33.666-11.803c-0.961-0.1-1.897-0.15-2.669-0.186c-1.106-0.063-2.147-0.099-3.164-0.109     L31.738,20.763c-0.136-0.122-0.275-0.243-0.374-0.313c-4.254-3.366-9.592-5.277-15.031-5.383c-0.41-0.01-0.792,0.147-1.08,0.429     c-0.288,0.282-0.45,0.668-0.45,1.071v100.583c0,0.829,0.671,1.5,1.5,1.5c0.829,0,1.5-0.671,1.5-1.5v-99     c4.251,0.384,8.361,2.012,11.75,4.691c0.064,0.047,0.122,0.102,0.162,0.137l80.33,75.6c0.018,0.017,0.106,0.093,0.124,0.108     c0.271,0.232,0.617,0.359,0.974,0.359c1.149,0,2.321,0.035,3.601,0.108c0.747,0.034,1.629,0.082,2.539,0.176     c11.504,1.005,22.67,4.918,32.29,11.315c4.637,3.078,8.912,6.727,12.706,10.845c3.032,3.297,5.757,6.895,8.097,10.691     c6.717,10.918,10.268,23.499,10.268,36.384c0,1.174-0.955,2.13-2.13,2.13H17.804v-39.804c0-0.829-0.671-1.5-1.5-1.5     c-0.829,0-1.5,0.671-1.5,1.5v41.304c0,0.829,0.671,1.5,1.5,1.5h162.21c2.829,0,5.13-2.301,5.13-5.13     C183.644,155.126,179.939,142.001,172.931,130.609z"/>
		</g>
	</g>
	<g>
		<g>
			<polygon class="st2" points="111.073,97.486 99.083,86.206 45.563,35.836 16.303,35.836 16.303,97.756 111.143,97.546    "/>
		</g>
	</g>
	<g>
		<g>
			<path class="st0" d="M112.101,96.394l-65.51-61.65c-0.278-0.262-0.646-0.408-1.028-0.408h-29.26c-0.829,0-1.5,0.671-1.5,1.5     v61.92c0,0.398,0.159,0.78,0.44,1.062c0.281,0.28,0.662,0.438,1.06,0.438h0.003l94.84-0.21c0.614-0.001,1.131-0.407,1.356-0.979     C112.729,97.496,112.549,96.814,112.101,96.394z M17.804,96.252V37.336h27.165l62.396,58.718L17.804,96.252z"/>
		</g>
	</g>
	<g>
		<g>
			<path class="st3" d="M183.063,172.196H16.303v18.29h166.76c2.52,0,4.81-1.02,6.46-2.68c1.66-1.65,2.68-3.93,2.68-6.46     C192.203,176.296,188.113,172.196,183.063,172.196z"/>
		</g>
	</g>
	<g>
		<g>
			<path class="st0" d="M183.063,170.696H16.304c-0.829,0-1.5,0.671-1.5,1.5v18.29c0,0.829,0.671,1.5,1.5,1.5h166.76     c2.85,0,5.522-1.109,7.518-3.116c2.014-2.001,3.122-4.673,3.122-7.524C193.703,175.473,188.931,170.696,183.063,170.696z      M188.46,186.748c-1.435,1.443-3.352,2.238-5.397,2.238H17.804v-15.29h165.26c4.213,0,7.64,3.432,7.64,7.65     C190.703,183.392,189.908,185.308,188.46,186.748z"/>
		</g>
	</g>
	<g>
		<g>
			
				<ellipse transform="matrix(0.3716 -0.9284 0.9284 0.3716 -100.6076 232.8922)" class="st3" cx="121.726" cy="190.762" rx="48.685" ry="48.685"/>
		</g>
	</g>
	<g>
		<g>
			<path class="st0" d="M121.727,140.577c-27.672,0-50.186,22.513-50.186,50.185c0,27.672,22.513,50.186,50.186,50.186     c27.672,0,50.185-22.513,50.185-50.186C171.911,163.089,149.398,140.577,121.727,140.577z M121.727,237.947     c-26.018,0-47.186-21.167-47.186-47.186c0-26.018,21.167-47.185,47.186-47.185c26.017,0,47.185,21.167,47.185,47.185     C168.911,216.78,147.744,237.947,121.727,237.947z"/>
		</g>
	</g>
	<g>
		<g>
			
				<ellipse transform="matrix(0.7071 -0.7071 0.7071 0.7071 -99.2362 141.9464)" class="st6" cx="121.726" cy="190.762" rx="21.562" ry="21.562"/>
		</g>
	</g>
	<g>
		<g>
			<path class="st0" d="M121.727,167.7c-12.716,0-23.062,10.345-23.062,23.062c0,12.716,10.346,23.062,23.062,23.062     c12.716,0,23.062-10.346,23.062-23.062C144.788,178.045,134.442,167.7,121.727,167.7z M121.727,210.824     c-11.062,0-20.062-9-20.062-20.062s9-20.062,20.062-20.062c11.062,0,20.062,9,20.062,20.062S132.788,210.824,121.727,210.824z"/>
		</g>
	</g>
	<g>
		<g>
			<path class="st1" d="M166.145,109.395h-19.413c-6.457,0-11.692,5.235-11.692,11.692c0,6.457,5.235,11.692,11.692,11.692h19.413     c6.457,0,11.692-5.235,11.692-11.692C177.837,114.629,172.602,109.395,166.145,109.395z"/>
		</g>
	</g>
	<g>
		<g>
			<path class="st0" d="M166.145,107.895h-19.414c-7.274,0-13.192,5.918-13.192,13.192c0,7.274,5.918,13.192,13.192,13.192h19.414     c7.273,0,13.191-5.918,13.191-13.192C179.337,113.812,173.419,107.895,166.145,107.895z M166.145,131.279h-19.414     c-5.62,0-10.192-4.572-10.192-10.192c0-5.62,4.572-10.192,10.192-10.192h19.414c5.619,0,10.191,4.572,10.191,10.192     C176.337,126.706,171.765,131.279,166.145,131.279z"/>
		</g>
	</g>
	<g>
		<g>
			<path class="st9" d="M162.407,29.689c-4.215,0-8.43,1.608-11.632,4.822l-16.571,16.571l-9.459,9.459L99.083,86.204l11.986,11.278     l62.97-62.97C170.837,31.297,166.622,29.689,162.407,29.689z"/>
		</g>
	</g>
	<g>
		<g>
			<path class="st0" d="M175.102,33.453c-3.381-3.394-7.889-5.264-12.694-5.264c-4.806,0-9.313,1.869-12.692,5.262l-16.571,16.571     c-0.586,0.585-0.586,1.535,0,2.121c0.586,0.586,1.535,0.586,2.121,0l16.573-16.573c2.814-2.825,6.567-4.381,10.569-4.381     c3.497,0,6.804,1.188,9.46,3.372l-60.83,60.83l-9.8-9.221l24.568-24.569c0.586-0.586,0.586-1.536,0-2.121     c-0.586-0.586-1.535-0.586-2.121,0L98.022,85.144c-0.287,0.287-0.445,0.678-0.439,1.083c0.006,0.406,0.177,0.792,0.472,1.069     l11.986,11.277c0.289,0.272,0.659,0.408,1.028,0.408c0.384,0,0.768-0.147,1.061-0.439l62.97-62.97     C175.685,34.987,175.685,34.039,175.102,33.453z"/>
		</g>
	</g>
	<g>
		<g>
			<polygon class="st1" points="173.957,79.581 169.367,95.984 173.841,97.237 179.491,77.061    "/>
		</g>
	</g>
	<g>
		<g>
			<path class="st0" d="M180.466,75.922c-0.444-0.38-1.067-0.467-1.597-0.226l-5.533,2.519c-0.403,0.184-0.704,0.535-0.823,0.961     l-4.59,16.403c-0.224,0.798,0.242,1.626,1.04,1.849l4.474,1.253c0.133,0.037,0.269,0.056,0.404,0.056     c0.255,0,0.509-0.065,0.735-0.192c0.347-0.195,0.602-0.52,0.709-0.903l5.649-20.175     C181.092,76.904,180.909,76.302,180.466,75.922z M172.801,95.388l-1.585-0.444l3.998-14.287l1.962-0.894L172.801,95.388z"/>
		</g>
	</g>
	<g>
		<g>
			<path class="st1" d="M194.501,78.846c-0.491-0.873-1.601-1.18-2.473-0.689l-8.127,4.571c-0.873,0.491-1.186,1.599-0.695,2.472     l1.846,3.281c0.157-0.125,0.329-0.243,0.51-0.345l10.226-5.752c0.181-0.102,0.371-0.187,0.56-0.257L194.501,78.846z"/>
		</g>
	</g>
	<g>
		<g>
			<path class="st0" d="M197.654,81.392l-1.846-3.281c-0.435-0.772-1.144-1.328-1.999-1.566c-0.853-0.236-1.746-0.129-2.518,0.305     l-8.127,4.571c-0.771,0.433-1.327,1.141-1.567,1.993c-0.241,0.854-0.134,1.75,0.3,2.521l1.846,3.281     c0.216,0.383,0.588,0.652,1.02,0.737c0.096,0.019,0.192,0.028,0.288,0.028c0.336,0,0.666-0.113,0.934-0.326     c0.096-0.077,0.201-0.149,0.312-0.211l10.229-5.753c0.11-0.062,0.226-0.113,0.34-0.155c0.413-0.152,0.738-0.477,0.89-0.889     C197.906,82.233,197.869,81.775,197.654,81.392z M185.598,86.394l-1.086-1.93c-0.051-0.091-0.043-0.179-0.026-0.236     c0.017-0.059,0.056-0.14,0.15-0.192l8.127-4.571c0.055-0.031,0.108-0.041,0.154-0.041c0.034,0,0.064,0.006,0.089,0.013     c0.057,0.016,0.136,0.054,0.188,0.146v0.001l1.086,1.93L185.598,86.394z"/>
		</g>
	</g>
	<g>
		<g>
			<polygon class="st3" points="188.821,72.803 180.21,76.731 183.659,82.863 191.879,78.24    "/>
		</g>
	</g>
	<g>
		<g>
			<path class="st0" d="M193.186,77.505l-3.058-5.437c-0.383-0.679-1.223-0.954-1.93-0.629l-8.611,3.928     c-0.383,0.174-0.674,0.5-0.804,0.899c-0.131,0.399-0.088,0.835,0.118,1.201l3.449,6.132c0.275,0.49,0.784,0.765,1.309,0.765     c0.249,0,0.502-0.062,0.734-0.193l8.22-4.623C193.336,79.142,193.593,78.227,193.186,77.505z M184.231,80.821l-1.914-3.402     l5.872-2.678l1.646,2.928L184.231,80.821z"/>
		</g>
	</g>
	<g>
		<g>
			<polygon class="st1" points="196.773,65.411 178.744,70.87 173.177,72.555 164.738,75.111 168.622,82.017 198.458,68.408    "/>
		</g>
	</g>
	<g>
		<g>
			<path class="st0" d="M199.766,67.672l-1.686-2.997c-0.345-0.613-1.07-0.903-1.742-0.7l-32.035,9.7     c-0.436,0.132-0.787,0.454-0.957,0.876c-0.17,0.422-0.139,0.898,0.084,1.295l3.885,6.907c0.273,0.486,0.781,0.765,1.309,0.765     c0.209,0,0.42-0.044,0.621-0.136l29.836-13.61c0.383-0.174,0.674-0.5,0.804-0.899C200.015,68.474,199.972,68.038,199.766,67.672z      M169.254,80.081l-2.293-4.076l6.65-2.014l22.443-6.796l0.296,0.525L169.254,80.081z"/>
		</g>
	</g>
	<g>
		<g>
			
				<rect x="159.707" y="76.942" transform="matrix(0.8716 -0.4902 0.4902 0.8716 -18.3872 90.424)" class="st3" width="7.409" height="6.737"/>
		</g>
	</g>
	<g>
		<g>
			<path class="st0" d="M169.6,80.695l-3.303-5.872c-0.195-0.347-0.52-0.602-0.903-0.709c-0.381-0.106-0.792-0.058-1.14,0.137     l-6.458,3.632c-0.347,0.195-0.602,0.52-0.709,0.903c-0.107,0.383-0.058,0.793,0.137,1.14l3.304,5.872     c0.275,0.49,0.785,0.765,1.309,0.765c0.249,0,0.502-0.062,0.734-0.193l6.457-3.632C169.749,82.331,170.006,81.417,169.6,80.695z      M162.407,83.02l-1.833-3.257l3.843-2.161l1.832,3.257L162.407,83.02z"/>
		</g>
	</g>
	<g>
		<g>
			<path class="st2" d="M232.762,109.785c-9.501-16.891-26.814-25.178-38.67-18.509c-11.856,6.669-13.766,25.768-4.265,42.659     c4.861,8.641,11.766,15.028,18.939,18.313c3.308,1.515,7.158,1.268,10.329-0.516l13.67-7.689c3.291-1.851,5.461-5.19,5.855-8.946     C239.433,127.345,237.544,118.287,232.762,109.785z"/>
		</g>
	</g>
	<g>
		<g>
			<path class="st0" d="M234.07,109.05c-9.893-17.586-28.157-26.143-40.713-19.081c-12.558,7.063-14.727,27.117-4.838,44.702     c4.865,8.648,11.834,15.375,19.622,18.941c1.648,0.755,3.434,1.129,5.229,1.129c2.218,0,4.451-0.571,6.46-1.701l13.67-7.689     c3.694-2.078,6.166-5.853,6.611-10.097C240.993,126.851,238.848,117.544,234.07,109.05z M237.127,134.941     c-0.343,3.279-2.249,6.193-5.098,7.795l-13.67,7.689v0c-2.803,1.575-6.153,1.748-8.968,0.459     c-7.217-3.305-13.7-9.585-18.257-17.685c-9.08-16.143-7.423-34.363,3.693-40.616c2.559-1.439,5.396-2.121,8.364-2.121     c9.924,0,21.272,7.63,28.263,20.058C235.931,118.478,237.945,127.15,237.127,134.941z"/>
		</g>
	</g>
	<g>
		<g>
			<path class="st6" d="M223.517,113.767c-5.639-10.026-15.916-14.945-22.954-10.987c-7.038,3.959-8.171,15.295-2.532,25.321     c2.885,5.129,6.984,8.92,11.242,10.87c1.963,0.899,4.249,0.753,6.131-0.306l8.114-4.564c1.954-1.099,3.241-3.081,3.475-5.31     C227.476,124.19,226.355,118.813,223.517,113.767z"/>
		</g>
	</g>
	<g>
		<g>
			<path class="st0" d="M224.824,113.031c-6.036-10.731-17.25-15.916-24.997-11.559c-7.747,4.357-9.14,16.633-3.104,27.364     c2.949,5.244,7.185,9.328,11.925,11.499c1.059,0.485,2.204,0.725,3.357,0.725c1.42,0,2.85-0.365,4.135-1.087l8.114-4.564     c2.365-1.33,3.947-3.746,4.232-6.461C229.021,123.836,227.722,118.184,224.824,113.031z M225.501,128.635     c-0.183,1.75-1.199,3.305-2.718,4.159l-8.114,4.564c-1.495,0.841-3.279,0.934-4.771,0.25c-4.169-1.909-7.919-5.546-10.559-10.242     c-5.226-9.289-4.347-19.732,1.959-23.279c1.432-0.805,3.021-1.187,4.686-1.187c5.665,0,12.188,4.422,16.226,11.602     C224.805,119.117,225.974,124.136,225.501,128.635z"/>
		</g>
	</g>
	<g>
		<g>
			<path class="st1" d="M202.851,87.492c-2.143-3.81-6.97-5.162-10.78-3.019l-2.794,1.571c-3.81,2.143-5.162,6.97-3.019,10.78     l0.786,1.397l16.593-9.333L202.851,87.492z"/>
		</g>
	</g>
	<g>
		<g>
			<path class="st0" d="M204.944,88.154l-0.786-1.397c-1.232-2.192-3.245-3.772-5.668-4.451c-2.422-0.679-4.963-0.373-7.154,0.86     l-2.794,1.571c-2.192,1.233-3.773,3.246-4.451,5.667c-0.678,2.422-0.372,4.963,0.86,7.155l0.785,1.397     c0.194,0.347,0.52,0.602,0.902,0.71c0.134,0.037,0.27,0.056,0.405,0.056c0.255,0,0.509-0.065,0.735-0.192l16.593-9.333     c0.347-0.195,0.602-0.52,0.709-0.903C205.188,88.911,205.139,88.501,204.944,88.154z M187.616,96.18l-0.05-0.09     c-0.841-1.494-1.049-3.225-0.587-4.875c0.462-1.65,1.539-3.021,3.033-3.862l2.794-1.572c1.494-0.84,3.227-1.047,4.875-0.586     c1.65,0.462,3.021,1.539,3.861,3.033l0.051,0.09L187.616,96.18z"/>
		</g>
	</g>
	<g>
		<g>
			<path class="st0" d="M152.529,79.607l-10.888-2.516c-0.815-0.188-1.612,0.317-1.8,1.123c-0.186,0.807,0.317,1.613,1.124,1.799     l10.888,2.516c0.114,0.026,0.228,0.039,0.339,0.039c0.683,0,1.3-0.469,1.461-1.163C153.84,80.6,153.336,79.794,152.529,79.607z"/>
		</g>
	</g>
	<g>
		<g>
			<path class="st0" d="M153.78,87.308c-0.438-0.706-1.363-0.922-2.064-0.488l-10.2,6.3c-0.705,0.436-0.924,1.36-0.488,2.064     c0.284,0.46,0.775,0.712,1.277,0.712c0.27,0,0.542-0.072,0.787-0.224l10.2-6.3C153.997,88.937,154.216,88.012,153.78,87.308z"/>
		</g>
	</g>
	<g>
		<g>
			<path class="st0" d="M158.395,90.956c-0.805-0.162-1.602,0.369-1.762,1.181l-1.936,9.81c-0.16,0.813,0.368,1.602,1.182,1.762     c0.098,0.02,0.195,0.029,0.292,0.029c0.701,0,1.329-0.496,1.47-1.21l1.936-9.81C159.737,91.906,159.209,91.117,158.395,90.956z"/>
		</g>
	</g>
	<g>
		<g>
			<path class="st10" d="M29.713,22.976c-0.04-0.03-0.09-0.09-0.16-0.14c-3.39-2.67-7.5-4.3-11.75-4.69v7.74l8.98,8.45h15     L29.713,22.976z"/>
		</g>
	</g>
	<g>
		<g>
			<path class="st10" d="M133.543,121.086c0-6.76,5.11-12.35,11.68-13.1c-8.57-4.82-18.13-7.8-27.94-8.66     c-0.92-0.09-1.8-0.14-2.54-0.17c-1.28-0.07-2.45-0.11-3.6-0.11l-13.25,0.03c0.6,0.02,1.21,0.04,1.85,0.08     c0.74,0.03,1.62,0.08,2.54,0.17c9.81,0.86,19.37,3.84,27.94,8.66c-6.57,0.75-11.68,6.34-11.68,13.1     c0,7.28,5.91,13.19,13.19,13.19h15C139.453,134.276,133.543,128.366,133.543,121.086z"/>
		</g>
	</g>
	<g>
		<g>
			<path class="st10" d="M171.053,133.326c-1.52,0.61-3.17,0.95-4.91,0.95h-9.55c5.58,9.81,8.68,20.85,9.01,32.19     c0.78,1.37,1.48,2.78,2.11,4.23h10.8c1.17,0,2.13-0.96,2.13-2.13C180.643,156.126,177.323,143.976,171.053,133.326z"/>
		</g>
	</g>
	<g>
		<g>
			<path class="st5" d="M98.053,87.296c0,0-0.01-0.01-0.01-0.02l-53.08-49.94h-15l53.08,49.94c0,0.01,0.01,0.02,0.01,0.02l9.31,8.76     h15L98.053,87.296z"/>
		</g>
	</g>
</g>
</svg>
